<svg xmlns="http://www.w3.org/2000/svg" width="20" height="20" viewBox="0 0 20 20">
    <g fill="#C4C6C5" fill-rule="evenodd">
        <path d="M17.6 16.898c0 .255-.209.465-.465.465H3.182a.466.466 0 0 1-.465-.465V7.595c0-.255.209-.465.465-.465h13.953c.256 0 .465.21.465.465v9.303zm0-14.419h-.93v-.93c0-.772-.623-1.396-1.395-1.396S13.88.777 13.88 1.55v.93H6.438v-.93c0-.772-.624-1.396-1.396-1.396-.772 0-1.395.624-1.395 1.396v.93h-.93A2.326 2.326 0 0 0 .39 4.805v12.558a2.326 2.326 0 0 0 2.326 2.325H17.6a2.326 2.326 0 0 0 2.326-2.325V4.805A2.326 2.326 0 0 0 17.6 2.479z"/>
        <path d="M6.903 10.386c0 .516-.417.93-.93.93a.931.931 0 1 1 .93-.93M6.903 14.107c0 .516-.417.93-.93.93a.931.931 0 1 1 .93-.93M11.089 10.386c0 .516-.417.93-.93.93a.931.931 0 1 1 .93-.93M11.089 14.107c0 .516-.417.93-.93.93a.931.931 0 1 1 .93-.93M15.275 10.386c0 .516-.417.93-.93.93a.931.931 0 1 1 .93-.93M15.275 14.107c0 .516-.417.93-.93.93a.931.931 0 1 1 .93-.93"/>
    </g>
</svg>
