<svg xmlns="http://www.w3.org/2000/svg" width="21" height="26" viewBox="0 0 21 26">
    <g fill="#C4C6C5" fill-rule="evenodd">
        <path d="M20.237 18.063l-1.425-2.241a1.561 1.561 0 0 1-.242-.743l-.492-7.528c-.262-3.99-3.38-7.303-7.364-7.537-4.334-.255-8.008 3.04-8.291 7.324l-.509 7.741c-.015.264-.1.52-.24.743l-1.426 2.24c-.666 1.05.089 2.423 1.33 2.423h17.333c1.237 0 1.992-1.373 1.326-2.422M13.03 22.06c.9 0 1.443 1.116.987 1.999C13.417 25.22 12.3 26 11.03 26c-1.27 0-2.386-.78-2.986-1.941-.457-.883.086-1.998.988-1.998h3.997"/>
    </g>
</svg>
