<?xml version="1.0" encoding="UTF-8" standalone="no"?>
<svg width="180px" height="31px" viewBox="0 0 180 31" version="1.1" xmlns="http://www.w3.org/2000/svg" xmlns:xlink="http://www.w3.org/1999/xlink">
    <!-- Generator: sketchtool 39.1 (31720) - http://www.bohemiancoding.com/sketch -->
    <title>59380389-B5F7-4D4C-A5C7-C4DC7AF2F4DB</title>
    <desc>Created with sketchtool.</desc>
    <defs></defs>
    <g id="Servicing---Brand-Update" stroke="none" stroke-width="1" fill="none" fill-rule="evenodd">
        <g id="Campaign_Services-Tablet-Portrait" transform="translate(-15.000000, -10.000000)">
            <g id="Top-Bar">
                <g id="sparesbox-Logo" transform="translate(15.000000, 10.000000)">
                    <path d="M17.1787305,19.2809038 C17.1787305,24.6364812 13.3002624,26.0035036 8.59029533,26.0035036 C5.7367845,26.0035036 3.36877974,25.5009494 0.757091858,24.5464715 C0.725840892,22.8100342 1.05267391,21.0859734 1.71694296,19.4834256 C3.93055306,20.1678744 6.03069239,20.7473119 8.52518915,20.7473119 C10.0133304,20.7473119 11.1759407,20.5410396 11.1759407,19.3409102 C11.1759407,18.1014016 9.90916051,17.9607614 7.64160529,17.7019835 C3.39110186,17.2106806 0,16.398718 0,11.418181 C0,6.10198288 3.86544688,4.61869796 8.7279484,4.61869796 C11.7042309,4.61869796 14.1801259,5.18125861 15.7426742,5.75507048 C15.7426742,7.63027265 15.4617875,9.26544895 14.7958443,10.6699754 C12.4780643,10.0905379 10.8280877,9.76800313 8.86932182,9.76800313 C6.94961961,9.76800313 5.92652251,10.0774115 5.92652251,11.1744048 C5.92652251,12.3745342 7.12819656,12.4870463 9.52224379,12.7364482 C13.348627,13.1227398 17.1768703,13.9609552 17.1768703,19.2790286" id="Fill-1" fill="#00263D"></path>
                    <path d="M22.0840161,5.74569447 C23.927451,4.98436239 26.5112363,4.62057316 28.4086164,4.62057316 C35.780496,4.62244837 39.1288138,10.0774115 39.1288138,15.3842336 C39.1288138,21.4355111 34.8020432,26.0035036 29.18431,26.0035036 C27.7569965,26.0280687 26.3475407,25.6811563 25.0919216,24.99652 L25.0919216,29.3919939 C23.2875503,30.2808397 21.1762499,30.6315025 18.7952239,30.6315025 L18.7952239,10.8556204 C18.7952239,8.31472145 19.7253122,6.73017561 22.0840161,5.74569447 L22.0840161,5.74569447 Z M25.0919216,18.4164356 C25.0919216,19.2940302 25.4639569,19.7703315 26.2191885,20.0553623 C26.9608409,20.2912627 27.7333723,20.4131508 28.5109261,20.4172763 C31.0314653,20.4172763 32.7893321,18.4558148 32.7893321,15.2810975 C32.7893321,12.1063802 30.9979821,10.1074147 28.2728235,10.1074147 C27.5546093,10.0974762 26.8412316,10.2285528 26.1726841,10.4937064 C25.4174525,10.8293676 25.0844808,11.3581746 25.0844808,12.262022 L25.0844808,18.4164356 L25.0919216,18.4164356 Z" id="Fill-3" fill="#00263D"></path>
                    <path d="M49.0956398,9.90114249 C47.5721552,9.90114249 45.589207,10.2105508 43.2212023,10.8818732 C42.5552591,9.47547159 42.2613512,7.82529368 42.2613512,5.99134595 C44.7398504,5.08599834 47.3560027,4.62338597 49.9922449,4.62432357 C55.8276188,4.62432357 59.1424534,6.8051837 59.1424534,12.6108096 L59.1424534,19.7984596 C59.1424534,22.5081267 58.1063351,23.9520324 55.8536612,24.8821327 C54.0623112,25.6172119 51.5027083,26.007254 49.2109708,26.007254 C45.0385948,26.007254 40.4941834,24.7302413 40.4941834,19.1946445 C40.4941834,13.7246797 44.9344249,12.7045697 49.824829,12.7045697 C50.8298824,12.698194 51.8345638,12.7544501 52.8327345,12.8733379 L52.8327345,12.4345406 C52.8327345,10.9625069 51.9249684,9.90489289 49.0956398,9.90489289 L49.0956398,9.90114249 Z M52.8327345,17.1769269 C51.8944615,17.0632897 50.9502358,17.0068461 50.0052662,17.0081587 C47.1368739,17.0081587 46.0616919,17.6025978 46.0616919,19.0858827 C46.0616919,20.6085469 47.2131411,20.9610849 48.665939,20.9610849 C49.3449035,20.9610849 50.8553668,20.8842016 51.7891755,20.5091612 C52.5964921,20.1866264 52.8383151,19.6953234 52.8383151,18.9471178 L52.8383151,17.1656757 L52.8327345,17.1769269 Z" id="Fill-5" fill="#00263D"></path>
                    <path d="M74.658186,5.15125538 C74.658186,7.25523222 74.299172,9.15106162 73.5960252,10.7768619 C72.74053,10.6373469 71.876664,10.555213 71.0103798,10.5312104 C70.2571943,10.5212718 69.5081012,10.6437225 68.7967697,10.8931244 C68.0526991,11.2025328 67.7476301,11.7838455 67.7476301,12.6989441 L67.7476301,24.7621197 C65.9302376,25.6528407 63.8319585,26.0016283 61.4379113,26.0016283 L61.4379113,10.8556204 C61.4379113,8.23033735 62.3679995,6.73955162 64.7397247,5.75882088 C66.5310747,5.00874001 69.0181307,4.62244837 70.8318029,4.62244837 C72.1244396,4.63219942 73.4105656,4.80996858 74.658186,5.15125538" id="Fill-7" fill="#00263D"></path>
                    <path d="M86.005263,26.0035036 C78.7096506,26.0035036 74.8572249,21.5142695 74.8572249,15.3711072 C74.8572249,8.92041175 79.092847,4.62244837 85.5067357,4.62244837 C90.9589132,4.62244837 94.9657335,7.73153357 94.9657335,13.5896652 C94.9657335,16.8412657 93.7249957,17.743238 90.4231824,17.743238 L81.2394907,17.743238 C81.853349,20.1434968 83.6335379,20.9948385 86.5130912,20.9948385 C88.5983491,20.9948385 90.198101,20.5429148 91.7346068,20.0009814 C92.3614863,21.3286245 92.6293517,22.9169208 92.6293517,24.6458572 C90.5362811,25.5489545 88.2821191,26.0110044 86.005263,26.0035036 L86.005263,26.0035036 Z M87.9472874,13.4227722 C88.8773756,13.4227722 89.1117579,13.0233541 89.1117579,12.4026622 C89.1117579,10.8406188 87.5882733,9.84863682 85.4769729,9.84863682 C83.3135876,9.84863682 81.726857,10.8931244 81.1985668,13.4227722 L87.9565882,13.4227722 L87.9472874,13.4227722 Z" id="Fill-9" fill="#00263D"></path>
                    <path d="M113.627025,19.2809038 C113.627025,24.6364812 109.748557,26.0035036 105.03859,26.0035036 C102.185079,26.0035036 99.817074,25.5009494 97.2053861,24.5464715 C97.1745071,22.8100342 97.5013402,21.0859734 98.1652372,19.4834256 C100.380707,20.1678744 102.478987,20.7473119 104.975344,20.7473119 C106.463485,20.7473119 107.626095,20.5410396 107.626095,19.3409102 C107.626095,18.1014016 106.357455,17.9607614 104.09176,17.7019835 C99.8412562,17.2106806 96.4501544,16.398718 96.4501544,11.418181 C96.4501544,6.10198288 100.315601,4.61869796 105.178103,4.61869796 C108.154385,4.61869796 110.63028,5.18125861 112.192829,5.75507048 C112.192829,7.63027265 111.911942,9.26544895 111.245999,10.6699754 C108.928219,10.0905379 107.278242,9.76800313 105.319476,9.76800313 C103.399774,9.76800313 102.376677,10.0774115 102.376677,11.1744048 C102.376677,12.3745342 103.578351,12.4870463 105.972398,12.7364482 C109.798781,13.1227398 113.627025,13.9609552 113.627025,19.2790286" id="Fill-11" fill="#00263D"></path>
                    <path d="M125.627024,4.62244837 C131.259638,4.62244837 135.584549,9.19044086 135.584549,15.2417183 C135.584549,20.5579164 132.236231,26.0035036 124.858771,26.0035036 C122.998594,26.0035036 120.418529,25.6547159 118.549052,24.8783822 C116.20709,23.9107779 115.247238,22.3487345 115.247238,19.7684563 L115.247238,1.23770844 C117.064631,0.34698741 119.16291,7.5008087e-05 121.556957,7.5008087e-05 L121.556957,5.62568153 C122.80495,4.94254538 124.207151,4.59694562 125.627024,4.62244837 L125.627024,4.62244837 Z M121.558818,18.3639299 C121.558818,19.2415245 121.878768,19.7965844 122.634,20.1322455 C123.302733,20.3966491 124.015925,20.5284758 124.734139,20.5204124 C127.472319,20.5204124 129.263669,18.5458245 129.263669,15.3467296 C129.263669,12.1476347 127.48534,10.2105508 124.985263,10.2105508 C124.207709,10.2146763 123.435178,10.3365644 122.693525,10.5724649 C121.938294,10.8556204 121.566258,11.3337969 121.566258,12.2113916 L121.566258,18.3658051 L121.558818,18.3639299 Z" id="Fill-13" fill="#00263D"></path>
                    <path d="M172.211425,15.0616989 L179.826988,24.6608588 C177.868222,25.6153367 175.548582,26.0016283 172.953636,26.0016283 L168.383182,19.7947092 L163.73274,26.0016283 C161.210341,26.0016283 158.957667,25.6153367 157.036105,24.6608588 L164.305675,15.4086113 L157.261186,5.95196671 C159.219952,4.9974888 161.459605,4.62244837 164.058271,4.62244837 L168.461309,10.4674535 L172.814122,4.62244837 C175.310479,4.62244837 177.537111,5.01061522 179.43077,5.93508989 L172.211425,15.0616989 Z" id="Fill-15" fill="#00263D"></path>
                    <path d="M147.82451,4.40680012 C142.387214,4.40680012 137.760955,8.15720446 136.946198,13.6215436 C136.922574,13.791812 137.040323,13.9491414 137.209227,13.9729565 C137.223736,13.9750192 137.238432,13.9759568 137.253127,13.9759568 L139.206313,13.9759568 C141.022775,13.9767069 142.724464,13.0807353 143.761885,11.5775732 L144.44457,10.5893417 C144.692345,10.156545 145.150507,9.88989127 145.646244,9.88989127 L150.311567,9.88989127 C150.807304,9.88989127 151.265279,10.156545 151.513241,10.5893417 L153.845902,14.6622808 C153.959559,14.8599271 154.023363,15.0827011 154.03192,15.3111008 L158.831175,15.3111008 C158.806993,8.93541337 153.808698,4.40304971 147.82451,4.40304971" id="Fill-17" fill="#F26A22"></path>
                    <path d="M154.028199,15.312976 C154.037686,15.5756918 153.973324,15.8357823 153.842182,16.0630568 L151.50952,20.135996 C151.261001,20.5691677 150.802281,20.8356339 150.305986,20.8354464 L145.648104,20.8354464 C145.151809,20.8356339 144.693089,20.5691677 144.44457,20.135996 L143.737703,19.1102604 C142.701212,17.6069108 141.000081,16.7103766 139.18399,16.7100016 L137.251267,16.7100016 C137.080689,16.709439 136.94192,16.848204 136.941362,17.02016 C136.941362,17.0349741 136.942292,17.0497882 136.944338,17.0644148 C137.747934,22.5456307 142.379774,26.3222879 147.826371,26.3222879 C153.82358,26.3222879 158.834896,21.7467946 158.834896,15.3561056 L158.834896,15.3111008 L154.028199,15.3111008 L154.028199,15.312976 Z" id="Fill-19" fill="#2D9ED8"></path>
                </g>
            </g>
        </g>
    </g>
</svg>