<svg xmlns="http://www.w3.org/2000/svg" xmlns:xlink="http://www.w3.org/1999/xlink" width="12" height="9" viewBox="0 0 12 9">
    <defs>
        <path id="a" d="M676.537 48.775l-5.608 5.746c-.31.316-.713.479-1.117.479s-.808-.163-1.117-.48l-3.232-3.307a1.658 1.658 0 0 1 0-2.3 1.559 1.559 0 0 1 2.242 0l2.107 2.162 4.483-4.6a1.559 1.559 0 0 1 2.242 0 1.658 1.658 0 0 1 0 2.3z"/>
    </defs>
    <g fill="none" fill-rule="evenodd" transform="translate(-665 -46)">
        <use fill="#2EC293" xlink:href="#a"/>
        <path stroke="#FFF" stroke-width=".8" d="M676.25 48.496a1.259 1.259 0 0 0 0-1.741 1.159 1.159 0 0 0-1.669 0l-4.77 4.893-2.392-2.455a1.159 1.159 0 0 0-1.67 0 1.258 1.258 0 0 0 0 1.74l3.232 3.308c.228.233.525.359.83.359.306 0 .604-.126.831-.359l5.608-5.745z"/>
    </g>
</svg>
